<svg xmlns="http://www.w3.org/2000/svg" xmlns:xlink="http://www.w3.org/1999/xlink" width="500" zoomAndPan="magnify" viewBox="0 0 375 374.999991" height="500" preserveAspectRatio="xMidYMid meet" version="1.0"><defs><clipPath id="6842bc743f"><path d="M 67 5 L 301 5 L 301 233 L 67 233 Z M 67 5 " clip-rule="nonzero"/></clipPath><clipPath id="f9a4a59005"><path d="M 69.574219 115.828125 L 294.957031 5.28125 C 296.261719 4.640625 297.804688 4.71875 299.039062 5.488281 C 300.269531 6.257812 301.019531 7.605469 301.019531 9.058594 L 301.019531 228.542969 C 301.019531 229.992188 300.269531 231.34375 299.039062 232.113281 C 297.804688 232.878906 296.261719 232.957031 294.957031 232.320312 L 69.574219 121.773438 C 68.4375 121.214844 67.71875 120.0625 67.71875 118.800781 C 67.71875 117.539062 68.4375 116.382812 69.574219 115.828125 " clip-rule="nonzero"/></clipPath><clipPath id="12ec6daa92"><path d="M 64 131 L 297 131 L 297 360 L 64 360 Z M 64 131 " clip-rule="nonzero"/></clipPath><clipPath id="9e8c97849c"><path d="M 294.957031 248.898438 L 69.570312 359.445312 C 68.265625 360.085938 66.722656 360.003906 65.492188 359.238281 C 64.257812 358.46875 63.507812 357.121094 63.507812 355.667969 L 63.507812 136.183594 C 63.507812 134.730469 64.257812 133.382812 65.492188 132.613281 C 66.722656 131.847656 68.265625 131.769531 69.570312 132.40625 L 294.957031 242.953125 C 296.089844 243.507812 296.808594 244.664062 296.808594 245.925781 C 296.808594 247.1875 296.089844 248.34375 294.957031 248.898438 " clip-rule="nonzero"/></clipPath></defs><g clip-path="url(#6842bc743f)"><g clip-path="url(#f9a4a59005)"><path fill="#5271ff" d="M 63.511719 235.292969 L 63.511719 5.035156 L 300.164062 5.035156 L 300.164062 235.292969 Z M 63.511719 235.292969 " fill-opacity="1" fill-rule="nonzero"/></g></g><g clip-path="url(#12ec6daa92)"><g clip-path="url(#9e8c97849c)"><path fill="#38b6ff" d="M 301.015625 129.433594 L 301.015625 359.691406 L 64.363281 359.691406 L 64.363281 129.433594 Z M 301.015625 129.433594 " fill-opacity="1" fill-rule="nonzero"/></g></g></svg>