<svg xmlns="http://www.w3.org/2000/svg" xmlns:xlink="http://www.w3.org/1999/xlink" width="500" zoomAndPan="magnify" viewBox="0 0 375 374.999991" height="500" preserveAspectRatio="xMidYMid meet" version="1.0"><defs><clipPath id="3f2930e70a"><path d="M 5 22.316406 L 372 22.316406 L 372 345 L 5 345 Z M 5 22.316406 " clip-rule="nonzero"/></clipPath><clipPath id="94e92fb855"><path d="M 182.070312 340.953125 L 6.691406 34.039062 C 5.304688 31.613281 5.316406 28.632812 6.714844 26.21875 C 8.117188 23.804688 10.699219 22.316406 13.492188 22.316406 L 364.042969 22.316406 C 366.835938 22.316406 369.417969 23.804688 370.820312 26.21875 C 372.222656 28.632812 372.230469 31.613281 370.84375 34.039062 L 195.464844 340.953125 C 194.09375 343.355469 191.535156 344.839844 188.769531 344.839844 C 186 344.839844 183.441406 343.355469 182.070312 340.953125 " clip-rule="nonzero"/></clipPath></defs><g clip-path="url(#3f2930e70a)"><g clip-path="url(#94e92fb855)"><path fill="#004aad" d="M 377.542969 352.671875 L -0.0078125 352.671875 L -0.0078125 22.316406 L 377.542969 22.316406 Z M 377.542969 352.671875 " fill-opacity="1" fill-rule="nonzero"/></g></g></svg>