<svg xmlns="http://www.w3.org/2000/svg" xmlns:xlink="http://www.w3.org/1999/xlink" width="40" zoomAndPan="magnify" viewBox="0 0 30 30.000001" height="40" preserveAspectRatio="xMidYMid meet" version="1.0"><defs><clipPath id="5d705d8514"><path d="M 1 4.40625 L 23 4.40625 L 23 23.890625 L 1 23.890625 Z M 1 4.40625 " clip-rule="nonzero"/></clipPath><clipPath id="4fc4767506"><path d="M 11.308594 23.351562 L 1.203125 5.667969 C 1.054688 5.40625 1.054688 5.085938 1.207031 4.828125 C 1.355469 4.566406 1.632812 4.40625 1.933594 4.40625 L 22.121094 4.40625 C 22.421875 4.40625 22.699219 4.566406 22.851562 4.828125 C 23 5.085938 23.003906 5.40625 22.851562 5.667969 L 12.75 23.351562 C 12.601562 23.609375 12.324219 23.769531 12.027344 23.769531 C 11.730469 23.769531 11.457031 23.609375 11.308594 23.351562 " clip-rule="nonzero"/></clipPath><clipPath id="8ff86492c6"><path d="M 19.242188 9 L 28.578125 9 L 28.578125 17.945312 L 19.242188 17.945312 Z M 19.242188 9 " clip-rule="nonzero"/></clipPath><clipPath id="c5d8c72d90"><path d="M 19.746094 12.714844 L 27.042969 9.136719 C 27.324219 9 27.652344 9.015625 27.917969 9.179688 C 28.183594 9.347656 28.34375 9.636719 28.34375 9.949219 L 28.34375 16.757812 C 28.34375 17.070312 28.183594 17.363281 27.917969 17.527344 C 27.652344 17.691406 27.324219 17.710938 27.042969 17.570312 L 19.746094 13.992188 C 19.503906 13.875 19.347656 13.625 19.347656 13.355469 C 19.347656 13.082031 19.503906 12.835938 19.746094 12.714844 " clip-rule="nonzero"/></clipPath><clipPath id="37e9e9c022"><path d="M 18.394531 15.339844 L 27.558594 15.339844 L 27.558594 24.242188 L 18.394531 24.242188 Z M 18.394531 15.339844 " clip-rule="nonzero"/></clipPath><clipPath id="01e9060929"><path d="M 27.039062 20.484375 L 19.921875 23.976562 C 19.644531 24.113281 19.3125 24.097656 19.046875 23.933594 C 18.78125 23.765625 18.621094 23.476562 18.621094 23.164062 L 18.621094 16.527344 C 18.621094 16.214844 18.78125 15.925781 19.046875 15.761719 C 19.3125 15.597656 19.644531 15.578125 19.921875 15.714844 L 27.039062 19.207031 C 27.285156 19.328125 27.441406 19.574219 27.441406 19.847656 C 27.441406 20.117188 27.285156 20.367188 27.039062 20.484375 " clip-rule="nonzero"/></clipPath></defs><g clip-path="url(#5d705d8514)"><g clip-path="url(#4fc4767506)"><path fill="#004aad" d="M 23.574219 24.613281 L 0.484375 24.613281 L 0.484375 4.40625 L 23.574219 4.40625 Z M 23.574219 24.613281 " fill-opacity="1" fill-rule="nonzero"/></g></g><g clip-path="url(#8ff86492c6)"><g clip-path="url(#c5d8c72d90)"><path fill="#5271ff" d="M 18.445312 18.210938 L 18.445312 8.609375 L 28.308594 8.609375 L 28.308594 18.210938 Z M 18.445312 18.210938 " fill-opacity="1" fill-rule="nonzero"/></g></g><g clip-path="url(#37e9e9c022)"><g clip-path="url(#01e9060929)"><path fill="#38b6ff" d="M 28.34375 15.078125 L 28.34375 24.503906 L 18.65625 24.503906 L 18.65625 15.078125 Z M 28.34375 15.078125 " fill-opacity="1" fill-rule="nonzero"/></g></g></svg>