<svg version="1.1" id="Layer_1" xmlns="http://www.w3.org/2000/svg" xmlns:xlink="http://www.w3.org/1999/xlink" x="0px" y="0px"
	 width="100%" viewBox="0 0 1024 1024" enable-background="new 0 0 1024 1024" xml:space="preserve">
<path fill="#FFFFFF" opacity="1.000000" stroke="none" 
	d="
M594.000000,1025.000000 
	C396.000000,1025.000000 198.500000,1025.000000 1.000000,1025.000000 
	C1.000000,683.666687 1.000000,342.333344 1.000000,1.000000 
	C342.333344,1.000000 683.666687,1.000000 1025.000000,1.000000 
	C1025.000000,342.333344 1025.000000,683.666687 1025.000000,1025.000000 
	C881.500000,1025.000000 738.000000,1025.000000 594.000000,1025.000000 
M812.271851,179.253784 
	C801.679443,178.842545 791.086975,178.431305 779.495361,178.043243 
	C770.289001,178.064560 761.082642,178.085861 750.982178,177.973648 
	C721.915894,178.265060 694.142822,184.508804 668.020081,197.162476 
	C638.553040,211.436081 612.852234,230.765717 592.886353,256.990326 
	C571.531494,285.039276 561.359741,317.077789 559.876709,352.135223 
	C558.873840,375.842072 562.626282,398.561890 572.812439,420.093048 
	C587.536011,451.215210 610.544434,475.048096 638.457092,494.534790 
	C663.447937,511.981689 691.452148,523.755615 718.749390,536.811646 
	C741.578247,547.730469 764.748901,557.995178 785.122925,573.280884 
	C790.533813,577.340393 795.617004,582.078674 799.991089,587.234558 
	C815.828613,605.902588 812.935913,648.170654 779.693848,662.740967 
	C770.832458,666.624939 761.244202,668.850464 751.020630,671.988342 
	C746.777832,672.259399 742.535095,672.530457 737.896179,672.437195 
	C736.249084,672.207581 734.580811,672.077820 732.958008,671.733765 
	C691.737000,662.996155 655.402344,643.702271 621.237488,619.806335 
	C615.019409,615.457153 609.183472,610.561707 602.811401,605.640686 
	C601.310608,608.289429 600.021118,610.565247 598.146790,612.595276 
	C595.245483,610.326660 592.344177,608.058105 589.340576,605.709473 
	C587.571533,608.410767 586.054565,610.727173 584.154541,612.427856 
	C581.383179,610.186035 578.611755,607.944214 575.610413,605.516357 
	C552.627930,644.180664 530.032654,682.193542 507.380829,720.301636 
	C508.648102,721.484131 509.560333,722.438538 510.576324,723.265442 
	C514.965942,726.838318 519.126282,730.769470 523.835938,733.860413 
	C562.171570,759.019409 602.410095,780.234009 647.724854,789.697449 
	C666.051208,793.524658 684.792603,795.364319 704.166504,798.027893 
	C705.728821,798.340820 707.290283,798.921509 708.853516,798.926147 
	C729.797668,798.987976 750.743347,799.100891 771.685486,798.887817 
	C777.691467,798.826782 783.687378,797.765625 790.225952,797.868164 
	C792.546753,797.847168 794.884460,798.001404 797.185791,797.778992 
	C833.034119,794.315125 867.032593,784.665405 898.893433,767.644287 
	C928.245056,751.963684 951.025452,729.950562 965.965454,699.968323 
	C981.096558,669.602417 986.654236,637.319397 986.146362,603.710022 
	C985.711243,574.918213 976.381348,549.215637 959.007385,526.443726 
	C938.920593,500.116241 914.054688,478.855194 885.270508,462.972076 
	C861.154236,449.664734 835.705566,438.735138 810.653381,427.171875 
	C787.516968,416.492859 764.399414,405.820190 743.389954,391.229736 
	C722.363525,376.627502 715.901062,359.341858 723.928284,338.002106 
	C732.248352,315.883575 750.568665,307.355774 773.070923,303.879181 
	C775.651367,303.675171 778.309631,302.962341 780.800476,303.343719 
	C816.021973,308.736542 848.808105,320.867676 879.273865,339.315735 
	C881.502991,340.665527 883.731995,342.015472 886.240234,343.534393 
	C887.461304,341.089508 888.415466,339.179108 890.083435,337.661560 
	C893.276428,339.530518 896.469360,341.399445 899.777466,343.335785 
	C901.076782,341.061462 902.130615,339.216736 903.820740,337.724548 
	C906.950073,339.566071 910.079468,341.407593 913.554077,343.452271 
	C932.095947,306.983246 950.459717,270.864563 969.039673,234.320557 
	C921.901978,201.498871 869.180725,185.579010 812.271851,179.253784 
M319.537872,358.865387 
	C284.789276,305.509399 249.797073,252.308884 215.546539,198.635071 
	C210.217789,190.284393 204.610474,187.202698 194.649475,188.837326 
	C151.270981,188.797440 107.892487,188.739578 64.513985,188.729980 
	C53.382740,188.727524 42.251465,188.877213 30.179783,188.843781 
	C26.148726,188.843781 22.117670,188.843781 17.223106,188.843781 
	C18.845329,191.377228 19.787783,192.906082 20.785027,194.398300 
	C92.284294,301.386536 163.804184,408.361023 235.192856,515.422974 
	C236.893784,517.973877 237.928589,521.499756 237.933762,524.573120 
	C238.078552,610.547668 238.050018,696.522583 238.050018,782.497375 
	C238.050018,784.446289 238.050018,786.395203 238.050018,788.731995 
	C243.042664,788.731995 247.495392,788.731995 252.882370,788.873413 
	C257.212769,788.880615 261.543152,788.898621 265.873535,788.893433 
	C306.676300,788.844055 347.479095,788.790710 389.156219,788.852600 
	C393.281616,788.852600 397.407013,788.852600 402.075500,788.852600 
	C402.075500,786.413269 402.075500,784.465393 402.075500,782.517456 
	C402.075500,696.703552 402.040161,610.889587 402.206879,525.075989 
	C402.213440,521.701416 403.415314,517.841064 405.291840,515.028809 
	C476.536438,408.258667 547.926147,301.585388 619.290955,194.895416 
	C620.463989,193.141678 621.568787,191.342300 623.105103,188.939178 
	C617.987244,188.939178 613.567871,188.939178 608.202942,188.787552 
	C559.283386,188.764282 510.363861,188.731750 461.444305,188.730728 
	C455.959991,188.730621 450.475677,188.909073 444.072052,188.869522 
	C442.074738,188.859787 440.042694,189.084091 438.087067,188.793640 
	C433.414062,188.099640 430.718933,189.936035 428.106842,193.986786 
	C403.863556,231.582245 379.379974,269.022949 354.908051,306.470642 
	C343.363922,324.135803 331.693268,341.718231 319.537872,358.865387 
z"/>
<path fill="#000001" opacity="1.000000" stroke="none" 
	d="
M584.537537,613.043640 
	C586.054565,610.727173 587.571533,608.410767 589.340576,605.709473 
	C592.344177,608.058105 595.245483,610.326660 598.641479,613.011230 
	C624.667419,634.432312 653.946228,648.903198 684.183472,661.500183 
	C701.394226,668.670227 719.288269,673.680420 738.292297,672.801514 
	C742.535095,672.530457 746.777832,672.259399 751.851440,672.018188 
	C767.279053,672.344238 780.994873,668.627563 794.099548,662.565674 
	C827.816345,646.969299 832.811218,598.358582 804.496033,577.802490 
	C795.623291,571.361145 786.930603,564.379761 777.254883,559.392822 
	C750.828125,545.772156 723.985962,532.948364 697.186829,520.061646 
	C669.276306,506.640411 643.071777,490.814270 621.033936,468.684082 
	C579.372986,426.848602 565.001465,377.176483 577.769592,319.571930 
	C586.407043,280.603302 607.356567,249.617722 638.273804,224.790558 
	C662.902710,205.013092 690.067749,190.498047 720.938477,183.451584 
	C731.126892,181.126038 741.556824,179.858475 751.876282,178.107178 
	C761.082642,178.085861 770.289001,178.064560 780.321350,178.160400 
	C791.761047,179.116745 802.374817,179.955933 813.395508,180.881104 
	C864.384583,189.533096 912.860901,203.635040 955.246460,234.540573 
	C954.167175,236.661942 953.192932,238.567947 952.226257,240.477798 
	C935.878479,272.775604 919.531616,305.073883 903.184448,337.372009 
	C902.130615,339.216736 901.076782,341.061462 899.777466,343.335785 
	C896.469360,341.399445 893.276428,339.530518 889.550171,337.287750 
	C870.029480,324.891235 849.009460,317.553741 827.836487,310.669861 
	C809.369446,304.665771 790.439514,301.366180 770.337891,302.682037 
	C752.244385,303.551178 735.934326,307.729309 722.345642,319.641266 
	C705.300720,334.583008 701.851196,363.078674 716.256348,378.973846 
	C722.852173,386.251862 731.107910,392.383789 739.497681,397.612579 
	C768.228149,415.518433 799.451111,428.468231 830.459412,441.757233 
	C872.350342,459.710144 909.495422,484.325989 939.468628,518.996338 
	C957.789917,540.188843 969.442078,564.660217 971.846863,592.698364 
	C974.569885,624.447266 970.620972,655.572144 958.839661,685.336548 
	C947.905823,712.959717 931.472717,736.680481 906.858521,754.000061 
	C871.653076,778.772034 832.138550,791.987488 789.687866,797.163025 
	C783.687378,797.765625 777.691467,798.826782 771.685486,798.887817 
	C750.743347,799.100891 729.797668,798.987976 708.853516,798.926147 
	C707.290283,798.921509 705.728821,798.340820 703.516357,797.719727 
	C691.256775,795.402527 679.612183,793.576416 668.044373,791.351013 
	C629.058533,783.850891 593.595703,767.469055 559.479919,747.814819 
	C545.811646,739.940369 532.521423,731.482605 521.031372,720.313660 
	C528.564209,707.642639 536.052002,695.096802 543.491577,682.522339 
	C557.188538,659.371582 570.857117,636.204163 584.537537,613.043640 
z"/>
<path fill="#000000" opacity="1.000000" stroke="none" 
	d="
M31.120201,188.956985 
	C42.251465,188.877213 53.382740,188.727524 64.513985,188.729980 
	C107.892487,188.739578 151.270981,188.797440 195.216888,189.278107 
	C217.716080,223.428894 239.626282,257.152954 261.586578,290.844360 
	C278.826050,317.293091 296.127472,343.701508 313.554199,370.457703 
	C315.738373,373.948273 317.769684,377.108887 320.050629,380.657898 
	C321.362854,378.722412 322.295349,377.390717 323.183716,376.030182 
	C338.347687,352.805969 353.527679,329.592072 368.661133,306.347992 
	C394.120514,267.243958 419.549561,228.120193 444.991364,189.004730 
	C450.475677,188.909073 455.959991,188.730621 461.444305,188.730728 
	C510.363861,188.731750 559.283386,188.764282 608.630615,189.216461 
	C608.715088,190.213669 608.394226,190.796936 608.025391,191.348175 
	C535.800903,299.305481 463.555084,407.248535 391.449005,515.284912 
	C389.660645,517.964355 388.581360,521.673523 388.575562,524.905029 
	C388.422058,610.686218 388.454803,696.467834 388.446350,782.249329 
	C388.446136,784.412415 388.339081,786.575439 388.281860,788.738525 
	C347.479095,788.790710 306.676300,788.844055 265.873535,788.893433 
	C261.543152,788.898621 257.212769,788.880615 252.392197,788.353516 
	C251.880844,700.015808 251.885422,612.197998 251.725647,524.380432 
	C251.720337,521.468567 250.680923,518.138245 249.062347,515.710388 
	C190.641495,428.077881 132.079086,340.539764 73.575417,252.962418 
	C59.354095,231.673752 45.268303,210.294556 31.120201,188.956985 
z"/>
<path fill="#FA02FA" opacity="1.000000" stroke="none" 
	d="
M388.719055,788.795532 
	C388.339081,786.575439 388.446136,784.412415 388.446350,782.249329 
	C388.454803,696.467834 388.422058,610.686218 388.575562,524.905029 
	C388.581360,521.673523 389.660645,517.964355 391.449005,515.284912 
	C463.555084,407.248535 535.800903,299.305481 608.025391,191.348175 
	C608.394226,190.796936 608.715088,190.213669 609.103394,189.292282 
	C613.567871,188.939178 617.987244,188.939178 623.105103,188.939178 
	C621.568787,191.342300 620.463989,193.141678 619.290955,194.895416 
	C547.926147,301.585388 476.536438,408.258667 405.291840,515.028809 
	C403.415314,517.841064 402.213440,521.701416 402.206879,525.075989 
	C402.040161,610.889587 402.075500,696.703552 402.075500,782.517456 
	C402.075500,784.465393 402.075500,786.413269 402.075500,788.852600 
	C397.407013,788.852600 393.281616,788.852600 388.719055,788.795532 
z"/>
<path fill="#02FBFB" opacity="1.000000" stroke="none" 
	d="
M30.649992,188.900391 
	C45.268303,210.294556 59.354095,231.673752 73.575417,252.962418 
	C132.079086,340.539764 190.641495,428.077881 249.062347,515.710388 
	C250.680923,518.138245 251.720337,521.468567 251.725647,524.380432 
	C251.885422,612.197998 251.880844,700.015808 251.925064,788.282837 
	C247.495392,788.731995 243.042664,788.731995 238.050018,788.731995 
	C238.050018,786.395203 238.050018,784.446289 238.050018,782.497375 
	C238.050018,696.522583 238.078552,610.547668 237.933762,524.573120 
	C237.928589,521.499756 236.893784,517.973877 235.192856,515.422974 
	C163.804184,408.361023 92.284294,301.386536 20.785027,194.398300 
	C19.787783,192.906082 18.845329,191.377228 17.223106,188.843781 
	C22.117670,188.843781 26.148726,188.843781 30.649992,188.900391 
z"/>
<path fill="#FB03FB" opacity="1.000000" stroke="none" 
	d="
M789.956909,797.515625 
	C832.138550,791.987488 871.653076,778.772034 906.858521,754.000061 
	C931.472717,736.680481 947.905823,712.959717 958.839661,685.336548 
	C970.620972,655.572144 974.569885,624.447266 971.846863,592.698364 
	C969.442078,564.660217 957.789917,540.188843 939.468628,518.996338 
	C909.495422,484.325989 872.350342,459.710144 830.459412,441.757233 
	C799.451111,428.468231 768.228149,415.518433 739.497681,397.612579 
	C731.107910,392.383789 722.852173,386.251862 716.256348,378.973846 
	C701.851196,363.078674 705.300720,334.583008 722.345642,319.641266 
	C735.934326,307.729309 752.244385,303.551178 770.515442,302.705811 
	C771.604980,303.106903 771.948547,303.533356 772.292114,303.959808 
	C750.568665,307.355774 732.248352,315.883575 723.928284,338.002106 
	C715.901062,359.341858 722.363525,376.627502 743.389954,391.229736 
	C764.399414,405.820190 787.516968,416.492859 810.653381,427.171875 
	C835.705566,438.735138 861.154236,449.664734 885.270508,462.972076 
	C914.054688,478.855194 938.920593,500.116241 959.007385,526.443726 
	C976.381348,549.215637 985.711243,574.918213 986.146362,603.710022 
	C986.654236,637.319397 981.096558,669.602417 965.965454,699.968323 
	C951.025452,729.950562 928.245056,751.963684 898.893433,767.644287 
	C867.032593,784.665405 833.034119,794.315125 797.185791,797.778992 
	C794.884460,798.001404 792.546753,797.847168 789.956909,797.515625 
z"/>
<path fill="#03FCFC" opacity="1.000000" stroke="none" 
	d="
M751.429199,178.040405 
	C741.556824,179.858475 731.126892,181.126038 720.938477,183.451584 
	C690.067749,190.498047 662.902710,205.013092 638.273804,224.790558 
	C607.356567,249.617722 586.407043,280.603302 577.769592,319.571930 
	C565.001465,377.176483 579.372986,426.848602 621.033936,468.684082 
	C643.071777,490.814270 669.276306,506.640411 697.186829,520.061646 
	C723.985962,532.948364 750.828125,545.772156 777.254883,559.392822 
	C786.930603,564.379761 795.623291,571.361145 804.496033,577.802490 
	C832.811218,598.358582 827.816345,646.969299 794.099548,662.565674 
	C780.994873,668.627563 767.279053,672.344238 752.335938,671.942749 
	C761.244202,668.850464 770.832458,666.624939 779.693848,662.740967 
	C812.935913,648.170654 815.828613,605.902588 799.991089,587.234558 
	C795.617004,582.078674 790.533813,577.340393 785.122925,573.280884 
	C764.748901,557.995178 741.578247,547.730469 718.749390,536.811646 
	C691.452148,523.755615 663.447937,511.981689 638.457092,494.534790 
	C610.544434,475.048096 587.536011,451.215210 572.812439,420.093048 
	C562.626282,398.561890 558.873840,375.842072 559.876709,352.135223 
	C561.359741,317.077789 571.531494,285.039276 592.886353,256.990326 
	C612.852234,230.765717 638.553040,211.436081 668.020081,197.162476 
	C694.142822,184.508804 721.915894,178.265060 751.429199,178.040405 
z"/>
<path fill="#04FBFB" opacity="1.000000" stroke="none" 
	d="
M584.346069,612.735718 
	C570.857117,636.204163 557.188538,659.371582 543.491577,682.522339 
	C536.052002,695.096802 528.564209,707.642639 521.031372,720.313660 
	C532.521423,731.482605 545.811646,739.940369 559.479919,747.814819 
	C593.595703,767.469055 629.058533,783.850891 668.044373,791.351013 
	C679.612183,793.576416 691.256775,795.402527 703.105713,797.760010 
	C684.792603,795.364319 666.051208,793.524658 647.724854,789.697449 
	C602.410095,780.234009 562.171570,759.019409 523.835938,733.860413 
	C519.126282,730.769470 514.965942,726.838318 510.576324,723.265442 
	C509.560333,722.438538 508.648102,721.484131 507.380829,720.301636 
	C530.032654,682.193542 552.627930,644.180664 575.610413,605.516357 
	C578.611755,607.944214 581.383179,610.186035 584.346069,612.735718 
z"/>
<path fill="#02FCFC" opacity="1.000000" stroke="none" 
	d="
M444.531708,188.937134 
	C419.549561,228.120193 394.120514,267.243958 368.661133,306.347992 
	C353.527679,329.592072 338.347687,352.805969 323.183716,376.030182 
	C322.295349,377.390717 321.362854,378.722412 320.050629,380.657898 
	C317.769684,377.108887 315.738373,373.948273 313.778290,370.158203 
	C315.926331,366.131927 318.003143,362.735046 320.079956,359.338165 
	C331.693268,341.718231 343.363922,324.135803 354.908051,306.470642 
	C379.379974,269.022949 403.863556,231.582245 428.106842,193.986786 
	C430.718933,189.936035 433.414062,188.099640 438.087067,188.793640 
	C440.042694,189.084091 442.074738,188.859787 444.531708,188.937134 
z"/>
<path fill="#FC02FC" opacity="1.000000" stroke="none" 
	d="
M319.808899,359.101776 
	C318.003143,362.735046 315.926331,366.131927 313.625427,369.828308 
	C296.127472,343.701508 278.826050,317.293091 261.586578,290.844360 
	C239.626282,257.152954 217.716080,223.428894 195.644699,189.378235 
	C204.610474,187.202698 210.217789,190.284393 215.546539,198.635071 
	C249.797073,252.308884 284.789276,305.509399 319.808899,359.101776 
z"/>
<path fill="#FB04FB" opacity="1.000000" stroke="none" 
	d="
M903.502563,337.548279 
	C919.531616,305.073883 935.878479,272.775604 952.226257,240.477798 
	C953.192932,238.567947 954.167175,236.661942 955.246460,234.540573 
	C912.860901,203.635040 864.384583,189.533096 813.407532,180.578217 
	C812.991394,179.988327 812.970337,179.787308 812.949341,179.586304 
	C869.180725,185.579010 921.901978,201.498871 969.039673,234.320557 
	C950.459717,270.864563 932.095947,306.983246 913.554077,343.452271 
	C910.079468,341.407593 906.950073,339.566071 903.502563,337.548279 
z"/>
<path fill="#FA06FA" opacity="1.000000" stroke="none" 
	d="
M738.094238,672.619385 
	C719.288269,673.680420 701.394226,668.670227 684.183472,661.500183 
	C653.946228,648.903198 624.667419,634.432312 598.933960,613.134155 
	C600.021118,610.565247 601.310608,608.289429 602.811401,605.640686 
	C609.183472,610.561707 615.019409,615.457153 621.237488,619.806335 
	C655.402344,643.702271 691.737000,662.996155 732.958008,671.733765 
	C734.580811,672.077820 736.249084,672.207581 738.094238,672.619385 
z"/>
<path fill="#07F6F7" opacity="1.000000" stroke="none" 
	d="
M772.681519,303.919495 
	C771.948547,303.533356 771.604980,303.106903 771.083862,302.656738 
	C790.439514,301.366180 809.369446,304.665771 827.836487,310.669861 
	C849.009460,317.553741 870.029480,324.891235 889.193237,337.091309 
	C888.415466,339.179108 887.461304,341.089508 886.240234,343.534393 
	C883.731995,342.015472 881.502991,340.665527 879.273865,339.315735 
	C848.808105,320.867676 816.021973,308.736542 780.800476,303.343719 
	C778.309631,302.962341 775.651367,303.675171 772.681519,303.919495 
z"/>
<path fill="#D21FD2" opacity="1.000000" stroke="none" 
	d="
M812.610596,179.420044 
	C812.970337,179.787308 812.991394,179.988327 813.000488,180.492218 
	C802.374817,179.955933 791.761047,179.116745 780.820923,178.148819 
	C791.086975,178.431305 801.679443,178.842545 812.610596,179.420044 
z"/>
</svg>